<?xml version="1.0" encoding="UTF-8" standalone="no"?>
<svg xmlns="http://www.w3.org/2000/svg" viewBox="0 0 600 700" width="600" height="700">
  <rect x="0" y="0" width="600" height="700" fill="#fff"/>
  
      <defs>
        <clipPath id="jerseyClip">
          <path d="M150,120 L240,60 L360,60 L450,120 L520,230 L520,600 L80,600 L80,230 Z"/>
          <path d="M80,230 L40,260 L40,330 L80,330 Z"/>
          <path d="M520,230 L560,260 L560,330 L520,330 Z"/>
        </clipPath>
      </defs>
    
  
  <g id="jersey">
    <path d="M80,230 L40,260 L40,330 L80,330 Z"  fill="#000958"/><path d="M520,230 L560,260 L560,330 L520,330 Z" fill="#000958"/><path d="M150,120 L240,60 L360,60 L450,120 L520,230 L520,600 L80,600 L80,230 Z"        fill="#000958"/>
    <g clip-path="url(#jerseyClip)"><rect x="35.9" y="0" width="14" height="700" fill="#FFFFFF" opacity="0.90"/>
<rect x="121.6" y="0" width="14" height="700" fill="#FFFFFF" opacity="0.90"/>
<rect x="207.3" y="0" width="14" height="700" fill="#FFFFFF" opacity="0.90"/>
<rect x="293.0" y="0" width="14" height="700" fill="#FFFFFF" opacity="0.90"/>
<rect x="378.7" y="0" width="14" height="700" fill="#FFFFFF" opacity="0.90"/>
<rect x="464.4" y="0" width="14" height="700" fill="#FFFFFF" opacity="0.90"/>
<rect x="550.1" y="0" width="14" height="700" fill="#FFFFFF" opacity="0.90"/></g>
    <path d="M80,230 L40,260 L40,330 L80,330 Z"  fill="none" stroke="#111" stroke-width="3"/><path d="M520,230 L560,260 L560,330 L520,330 Z" fill="none" stroke="#111" stroke-width="3"/><path d="M150,120 L240,60 L360,60 L450,120 L520,230 L520,600 L80,600 L80,230 Z"         fill="none" stroke="#111" stroke-width="3"/>
    <g clip-path="url(#jerseyClip)">
      <text x="300.0" y="200" text-anchor="middle" font-weight="bold" font-family="Arial" font-size="60" fill="#FF5B2E" letter-spacing="2">BEN</text>
      <text x="300.0" y="540" text-anchor="middle" font-weight="bold" font-family="Arial" font-size="60" fill="#FF5B2E">Spartan FC</text>
      <text x="300.0" y="100" text-anchor="middle" font-weight="bold" font-family="Arial" font-size="22" fill="#FF5B2E">San Jose State University</text>
      <text x="300.0" y="410" text-anchor="middle" font-weight="bold" font-family="Arial" font-size="180" fill="#FF5B2E">23</text>
    </g>
  </g>
</svg>
